<svg xmlns="http://www.w3.org/2000/svg" xmlns:xlink="http://www.w3.org/1999/xlink" xmlns:lucid="lucid" width="1880" height="1105.45"><g transform="translate(0 -26.733336409984958)" lucid:page-tab-id="0_0"><path d="M20 66a6 6 0 0 1 6-6h148a6 6 0 0 1 6 6v108a6 6 0 0 1-6 6H26a6 6 0 0 1-6-6z" stroke="#3a414a" fill="#fff"/><use xlink:href="#a" transform="matrix(1,0,0,1,32,72) translate(35.314814814814824 38.77777777777778)"/><use xlink:href="#b" transform="matrix(1,0,0,1,32,72) translate(36.641975308641975 65.44444444444446)"/><path d="M569.18 65.3A10 10 0 0 1 578 60h106c8.84 0 16 26.86 16 60s-7.16 60-16 60H578a10 10 0 0 1-8.82-5.3l-26.36-49.4a11.25 11.25 0 0 1 0-10.6z" stroke="#3a414a" fill="#fff"/><use xlink:href="#c" transform="matrix(1,0,0,1,545,65) translate(22.690185185185193 45.27777777777778)"/><use xlink:href="#d" transform="matrix(1,0,0,1,545,65) translate(24.597592592592598 71.94444444444446)"/><path d="M309.18 65.3A10 10 0 0 1 318 60h84a10 10 0 0 1 8.82 5.3l26.36 49.4a11.25 11.25 0 0 1 0 10.6l-26.36 49.4A10 10 0 0 1 402 180h-84a10 10 0 0 1-8.82-5.3l-26.36-49.4a11.25 11.25 0 0 1 0-10.6z" stroke="#3a414a" fill="#fff"/><use xlink:href="#e" transform="matrix(1,0,0,1,285,65) translate(17.69018518518518 59.02777777777778)"/><path d="M919 85.92a6.8 6.8 0 0 1 5.95-6.74l148.1-18.44A5.3 5.3 0 0 1 1079 66v108a6 6 0 0 1-6 6H925a6 6 0 0 1-6-6z" stroke="#3a414a" fill="#fff"/><use xlink:href="#f" transform="matrix(1,0,0,1,923.9993997252022,85) translate(10.864197530864203 23.40277777777778)"/><use xlink:href="#g" transform="matrix(1,0,0,1,923.9993997252022,85) translate(89.75308641975309 23.40277777777778)"/><use xlink:href="#h" transform="matrix(1,0,0,1,923.9993997252022,85) translate(22.65432098765431 50.06944444444445)"/><use xlink:href="#i" transform="matrix(1,0,0,1,923.9993997252022,85) translate(75 76.73611111111111)"/><path d="M182.5 120h75.76" stroke="#54c45e" stroke-width="4" fill="none"/><path d="M182.55 122h-2.05v-4h2.05z" stroke="#54c45e" stroke-width=".05" fill="#54c45e"/><path d="M274.53 120l-14.27 4.64v-9.28z" stroke="#54c45e" stroke-width="4" fill="#54c45e"/><path d="M441 120h77.26" stroke="#54c45e" stroke-width="4" fill="none"/><path d="M441.05 122h-2.23l.12-.85.06-1.15-.06-1.15-.12-.85h2.23z" stroke="#54c45e" stroke-width=".05" fill="#54c45e"/><path d="M534.53 120l-14.27 4.64v-9.28z" stroke="#54c45e" stroke-width="4" fill="#54c45e"/><path d="M702.5 120h193.26" stroke="#54c45e" stroke-width="4" fill="none"/><path d="M702.55 122h-2.13l.08-2-.07-2h2.12z" stroke="#54c45e" stroke-width=".05" fill="#54c45e"/><path d="M912.03 120l-14.27 4.64v-9.28z" stroke="#54c45e" stroke-width="4" fill="#54c45e"/><path d="M420 578c0 6.63-26.86 12-60 12s-60-5.37-60-12v-96c0-6.63 26.86-12 60-12s60 5.37 60 12z" stroke="#3a414a" fill="#fff"/><path d="M420 482c0 6.63-26.86 12-60 12s-60-5.37-60-12" stroke="#3a414a" fill="none"/><use xlink:href="#j" transform="matrix(1,0,0,1,305,499.0000499999999) translate(7.5 47.34027777777778)"/><path d="M855.7 473.6a8 8 0 0 1 9.6 0l70.4 52.8a4.5 4.5 0 0 1 0 7.2l-70.4 52.8a8 8 0 0 1-9.6 0l-70.4-52.8a4.5 4.5 0 0 1 0-7.2z" stroke="#3a414a" fill="#fff"/><use xlink:href="#k" transform="matrix(1,0,0,1,785.4999611155703,475.0000499999999) translate(15.838333333333333 59.02777777777778)"/><use xlink:href="#l" transform="matrix(1,0,0,1,785.4999611155703,475.0000499999999) translate(67.56672839506173 59.02777777777778)"/><path d="M716.7 532h-12.96v-4h12.95zm64.3 0h-33.7v-4H781z" stroke="#1071e5" stroke-width=".05" fill="#1071e5"/><path d="M783.34 528.2l-.26.88-.08.92.08.92.26.9.1.18h-2.5v-4h2.5z" fill="#1071e5"/><path d="M783.36 528.2l-.25.88-.08.92.1.92.24.88.1.23h-2.54v-4.05h2.55zm-2.4-.18V532h2.43l-.08-.16-.26-.9-.1-.92.1-.93.26-.9.07-.14z" stroke="#1071e5" stroke-width=".05" fill="#1071e5"/><path d="M701.74 534.63L687.47 530l14.27-4.63z" fill="#1071e5"/><path d="M703.74 537.4L681 530l22.74-7.4zm-9.8-7.4l5.8 1.88v-3.76z" stroke="#1071e5" stroke-width=".05" fill="#1071e5"/><use xlink:href="#m" transform="matrix(1,0,0,1,716.6902336507584,519.3333833333332) translate(0 14.222222222222223)"/><path d="M520.5 495.92a6.8 6.8 0 0 1 5.95-6.74l148.1-18.44a5.3 5.3 0 0 1 5.95 5.26v108a6 6 0 0 1-6 6h-148a6 6 0 0 1-6-6z" stroke="#3a414a" fill="#fff"/><use xlink:href="#f" transform="matrix(1,0,0,1,525.4999611155703,495.0000499999999) translate(10.864197530864203 23.40277777777778)"/><use xlink:href="#g" transform="matrix(1,0,0,1,525.4999611155703,495.0000499999999) translate(89.75308641975309 23.40277777777778)"/><use xlink:href="#n" transform="matrix(1,0,0,1,525.4999611155703,495.0000499999999) translate(38.08641975308642 50.06944444444445)"/><use xlink:href="#i" transform="matrix(1,0,0,1,525.4999611155703,495.0000499999999) translate(75 76.73611111111111)"/><path d="M518 530.17h-74.75" stroke="#1071e5" stroke-width="4" fill="none"/><path d="M520 532.17h-2.05v-4H520z" stroke="#1071e5" stroke-width=".05" fill="#1071e5"/><path d="M426.97 530.17l14.27-4.64v9.27z" stroke="#1071e5" stroke-width="4" fill="#1071e5"/><path d="M360 181v272.12" stroke="#3a414a" fill="none"/><path d="M360.5 181h-1v-.5h1z" stroke="#3a414a" stroke-width=".05" fill="#3a414a"/><path d="M360 467.88l-4.63-14.26h9.26z" stroke="#3a414a" fill="#3a414a"/><path d="M1309.18 65.3A10 10 0 0 1 1318 60h106c8.84 0 16 26.86 16 60s-7.16 60-16 60h-106a10 10 0 0 1-8.82-5.3l-26.36-49.4a11.25 11.25 0 0 1 0-10.6z" stroke="#3a414a" fill="#fff"/><use xlink:href="#o" transform="matrix(1,0,0,1,1285,65) translate(30.23222222222222 21.21527777777778)"/><use xlink:href="#p" transform="matrix(1,0,0,1,1285,65) translate(45.23222222222222 21.21527777777778)"/><use xlink:href="#q" transform="matrix(1,0,0,1,1285,65) translate(22.22222222222222 47.88194444444444)"/><use xlink:href="#r" transform="matrix(1,0,0,1,1285,65) translate(28.39506172839506 47.88194444444444)"/><use xlink:href="#s" transform="matrix(1,0,0,1,1285,65) translate(41.91358024691358 47.88194444444444)"/><use xlink:href="#q" transform="matrix(1,0,0,1,1285,65) translate(22.22222222222222 74.54861111111111)"/><use xlink:href="#r" transform="matrix(1,0,0,1,1285,65) translate(28.39506172839506 74.54861111111111)"/><use xlink:href="#t" transform="matrix(1,0,0,1,1285,65) translate(41.91358024691358 74.54861111111111)"/><use xlink:href="#q" transform="matrix(1,0,0,1,1285,65) translate(25.01 101.21527777777777)"/><use xlink:href="#r" transform="matrix(1,0,0,1,1285,65) translate(31.18283950617284 101.21527777777777)"/><use xlink:href="#u" transform="matrix(1,0,0,1,1285,65) translate(44.70135802469136 101.21527777777777)"/><path d="M416.9 475.62V336a6 6 0 0 1 6-6h327.3" stroke="#1071e5" stroke-width="4" fill="none"/><path d="M418.9 479.02l-.44-.38-.75-.54-1.1-.67-1.7-.82v-1.04h4z" stroke="#1071e5" stroke-width=".05" fill="#1071e5"/><path d="M766.46 330l-14.27 4.63v-9.26z" stroke="#1071e5" stroke-width="4" fill="#1071e5"/><path d="M989 324.08l-.08 1.17-.3 1.22-.47 1.16-.66 1.08-.83.96-.95.82-1.07.65-1.16.48-1.24.3-1.17.1h-31.03v-4h30.86l.7-.06.62-.14.58-.24.53-.33.48-.4.4-.48.33-.54.24-.57.16-.6.05-.7v-73.26h4zm0-94.75h-4v-26.1h4z" stroke="#54c45e" stroke-width=".05" fill="#54c45e"/><path d="M950.12 332h-2.47l.08-.16.25-.9.1-.94-.1-.94-.25-.9-.08-.16h2.47z" fill="#54c45e"/><path d="M950.14 332.02h-2.53l.1-.2.26-.9.08-.92-.08-.93-.25-.9-.1-.2h2.54zm-2.45-4l.05.13.26.9.1.95-.1.94-.25.9-.06.14h2.4v-3.96z" stroke="#54c45e" stroke-width=".05" fill="#54c45e"/><path d="M991.65 201.24h-9.27l4.63-14.27z" fill="#54c45e"/><path d="M994.4 203.24h-14.78l7.4-22.74zm-9.27-4h3.76l-1.9-5.8z" stroke="#54c45e" stroke-width=".05" fill="#54c45e"/><use xlink:href="#v" transform="matrix(1,0,0,1,956.4688901879781,229.33333333333337) translate(0 14.222222222222223)"/><path d="M1280.4 768.15a6.38 6.38 0 0 1 6-6.38l148.02-9.2a5.64 5.64 0 0 1 6 5.62v48a6 6 0 0 1-6 6h-148a6 6 0 0 1-6-6z" stroke="#3a414a" fill="#fff"/><use xlink:href="#w" transform="matrix(1,0,0,1,1285.413823431653,767.1861421089889) translate(36.54074074074074 24.56666666666667)"/><path d="M1330.35 975.86l.06.7.15.6.24.6.32.52.4.48.48.4.54.34.58.24.6.14.7.06h13v4h-13.15l-1.17-.1-1.22-.3-1.16-.47-1.08-.66-.95-.8-.83-.96-.65-1.07-.48-1.16-.3-1.2-.1-1.2V928.9h4zm0-68.3h-4v-92.87h4z" stroke="#1071e5" stroke-width=".05" fill="#1071e5"/><path d="M1330.35 814.74h-4v-2.05h4z" fill="#1071e5"/><path d="M1330.38 814.76h-4.05v-2.1h4.05zm-4-2.05v2h3.95v-2z" stroke="#1071e5" stroke-width=".05" fill="#1071e5"/><path d="M1355.24 987.8l-14.2-4.86 5.57-7.4z" fill="#1071e5"/><path d="M1360.4 991.7l-22.6-7.76 8.87-11.8zm-16.1-9.76l5.76 1.97-3.5-4.97z" stroke="#1071e5" stroke-width=".05" fill="#1071e5"/><use xlink:href="#x" transform="matrix(1,0,0,1,1323.412751749146,907.5508773131337) translate(0 14.222222222222223)"/><path d="M1362.4 968.95h-4v-37.3h4zm0-58.63h-4V814.7h4z" stroke="#d916a8" stroke-width=".05" fill="#d916a8"/><path d="M1362.4 814.74h-4v-2.05h4z" fill="#d916a8"/><path d="M1362.44 814.76h-4.05v-2.1h4.04zm-4-2.05v2h3.95v-2z" stroke="#d916a8" stroke-width=".05" fill="#d916a8"/><path d="M1360.4 985.2l-4.62-14.25h9.27z" fill="#d916a8"/><path d="M1360.4 991.68l-7.37-22.73h14.77zm-1.87-18.73l1.88 5.8 1.9-5.8z" stroke="#d916a8" stroke-width=".05" fill="#d916a8"/><use xlink:href="#y" transform="matrix(1,0,0,1,1355.4755518266675,910.3199144026242) translate(0 14.222222222222223)"/><path d="M1392.4 976.26l-.08 1.18-.3 1.22-.47 1.16-.66 1.07-.83.95-.95.8-1.07.67-1.16.48-1.23.3-1.18.1h-10.85v-4h10.68l.7-.07.62-.15.58-.24.53-.32.48-.4.4-.5.33-.52.24-.58.16-.6.05-.7v-48.5h4zm.46-94.06l-.23.96-.2.2v22.93h-4v-24.4l.43-.88V814.7h4z" stroke="#fcce14" stroke-width=".05" fill="#fcce14"/><path d="M1392.86 814.74h-4v-2.05h4z" fill="#fcce14"/><path d="M1392.9 814.76h-4.06v-2.1h4.05zm-4-2.05v2h3.94v-2z" stroke="#fcce14" stroke-width=".05" fill="#fcce14"/><path d="M1379.96 983.36l-14.3 4.55 8.9-12.07z" fill="#fcce14"/><path d="M1383.2 984.43l-22.8 7.26 14.18-19.27zm-12.27-.3l5.8-1.84-2.2-3.07z" stroke="#fcce14" stroke-width=".05" fill="#fcce14"/><use xlink:href="#z" transform="matrix(1,0,0,1,1385.4755518267148,906.2946826965987) translate(0 14.222222222222223)"/><path d="M1309.6 997.48a10 10 0 0 1 8.8-5.3h106c8.85 0 16 26.87 16 60 0 33.14-7.15 60-16 60h-106a10 10 0 0 1-8.8-5.3l-26.36-49.4a11.25 11.25 0 0 1 0-10.6z" stroke="#3a414a" fill="#fff"/><use xlink:href="#A" transform="matrix(1,0,0,1,1285.413823431653,997.1861421089889) translate(8.165493827160484 59.02777777777778)"/><use xlink:href="#B" transform="matrix(1,0,0,1,1285.413823431653,997.1861421089889) translate(72.36302469135802 59.02777777777778)"/><path d="M1784.5 1072.48l-.1 1.17-.3 1.22-.47 1.16-.66 1.08-.8.96-.97.82-1.07.65-1.16.48-1.22.3-1.17.1h-335.4v-4h335.24l.7-.06.6-.14.6-.24.53-.33.47-.4.4-.48.34-.54.24-.57.14-.6.06-.7v-68.42h4zm0-89.9h-4v-46.66h4z" stroke="#d916a8" stroke-width=".05" fill="#d916a8"/><path d="M1441.22 1080.4h-2.3l.5-4h1.8z" fill="#d916a8"/><path d="M1441.25 1080.42h-2.36l.5-4.05h1.85zm-1.8-4l-.5 3.95h2.25v-3.94z" stroke="#d916a8" stroke-width=".05" fill="#d916a8"/><path d="M1787.13 933.92h-9.27l4.64-14.26z" fill="#d916a8"/><path d="M1789.9 935.92h-14.8l7.4-22.73zm-9.3-4h3.78l-1.88-5.8z" stroke="#d916a8" stroke-width=".05" fill="#d916a8"/><use xlink:href="#C" transform="matrix(1,0,0,1,1763.7818356382772,982.5785218640796) translate(0 14.222222222222223)"/><path d="M1705 853.7a6 6 0 0 1 6-6h143a6 6 0 0 1 6 6v53a6 6 0 0 1-6 6h-143a6 6 0 0 1-6-6z" stroke="#3a414a" fill="#fff"/><use xlink:href="#o" transform="matrix(1,0,0,1,1716.9957700419868,859.686117108989) translate(7.222222222222221 25.65277777777778)"/><use xlink:href="#D" transform="matrix(1,0,0,1,1716.9957700419868,859.686117108989) translate(22.22222222222222 25.65277777777778)"/><use xlink:href="#E" transform="matrix(1,0,0,1,1716.9957700419868,859.686117108989) translate(67.90123456790124 25.65277777777778)"/><path d="M1111.87 171.07h-30.37v-4h30.37zm153.7-32.43h-75.6l-.7.05-.6.14-.58.24-.54.33-.48.4-.4.5-.34.52-.23.58-.14.6-.06.72v15.68h-4v-15.84l.1-1.18.3-1.22.47-1.16.66-1.07.8-.95.97-.82 1.07-.66 1.16-.48 1.22-.3 1.17-.08h75.75z" stroke="#d916a8" stroke-width=".05" fill="#d916a8"/><path d="M1081.55 171.07h-2.05v-4h2.05z" fill="#d916a8"/><path d="M1081.58 171.1h-2.1v-4.06h2.1zm-2.06-4v3.94h2v-3.95z" stroke="#d916a8" stroke-width=".05" fill="#d916a8"/><path d="M1281.83 136.64l-14.26 4.63V132z" fill="#d916a8"/><path d="M1288.3 136.64l-22.73 7.4v-14.8zm-18.73 1.88l5.8-1.88-5.8-1.9z" stroke="#d916a8" stroke-width=".05" fill="#d916a8"/><use xlink:href="#F" transform="matrix(1,0,0,1,1111.8717164266059,158.40000169383242) translate(0 14.222222222222223)"/><use xlink:href="#G" transform="matrix(1,0,0,1,1111.8717164266059,158.40000169383242) translate(81.7777777777778 14.222222222222223)"/><path d="M1081.5 73.07h96.75a6 6 0 0 1 6 6v16.98a6 6 0 0 0 6 6h76.02" stroke="#1071e5" stroke-width="4" fill="none"/><path d="M1081.55 75.07h-2.05v-4h2.05z" stroke="#1071e5" stroke-width=".05" fill="#1071e5"/><path d="M1282.54 102.05l-14.27 4.63V97.4z" stroke="#1071e5" stroke-width="4" fill="#1071e5"/><use xlink:href="#H" transform="matrix(1,0,0,1,1079.4449303394883,47.73333640998496) translate(0 14.222222222222223)"/><use xlink:href="#I" transform="matrix(1,0,0,1,1079.4449303394883,47.73333640998496) translate(83.85185185185185 14.222222222222223)"/><path d="M862.5 469.5h-4v-23.86h4zm0-45.2h-4v-3.12h4z" stroke="#ba23f6" stroke-width=".05" fill="#ba23f6"/><path d="M862.5 471.75l-.9-.18-1.1-.07-1.1.07-.9.18v-2.3h4z" fill="#ba23f6"/><path d="M862.52 471.78l-.93-.2-1.1-.06-1.1.07-.92.18v-2.36h4.04zm-4-2.3v2.24l.9-.18 1.08-.07 1.1.07.88.18v-2.25z" stroke="#ba23f6" stroke-width=".05" fill="#ba23f6"/><path d="M865.13 419.18h-9.26l4.63-14.26z" fill="#ba23f6"/><path d="M867.9 421.18h-14.8l7.4-22.74zm-9.28-4h3.76l-1.88-5.8z" stroke="#ba23f6" stroke-width=".05" fill="#ba23f6"/><use xlink:href="#J" transform="matrix(1,0,0,1,848.6974919797678,424.30406300485384) translate(0 14.222222222222223)"/><path d="M862.5 259.56h-4v-4.23h4zM102 214.96l.06.7.14.6.24.58.33.54.4.47.48.4.54.34.57.23.6.14.7.06h748.5l1.18.1 1.22.28 1.16.5 1.08.65.96.82.82.95.65 1.07.48 1.16.3 1.22.1 1.17V234h-4v-6.9l-.05-.7-.15-.6-.24-.58-.33-.54-.4-.47-.48-.4-.54-.33-.57-.24-.6-.15-.7-.05h-748.5l-1.18-.1-1.22-.3-1.17-.47-1.07-.65-.96-.8-.82-.96-.65-1.08-.48-1.16-.3-1.22-.1-1.17v-11.86h4z" stroke="#1071e5" stroke-width=".05" fill="#1071e5"/><path d="M862.5 261.8l-.92-.17-1.08-.07-1.08.07-.92.18v-2.3h4z" fill="#1071e5"/><path d="M862.52 261.84l-.94-.2-1.08-.06-1.08.07-.94.2v-2.37h4.04zm-4-2.3v2.24l.9-.18 1.08-.07 1.1.07.88.18v-2.25z" stroke="#1071e5" stroke-width=".05" fill="#1071e5"/><path d="M104.64 201.24h-9.28l4.64-14.27z" fill="#1071e5"/><path d="M107.4 203.24H92.6l7.4-22.74zm-9.28-4h3.76l-1.88-5.8z" stroke="#1071e5" stroke-width=".05" fill="#1071e5"/><use xlink:href="#K" transform="matrix(1,0,0,1,844.2283561772987,233.9973761283463) translate(0 14.222222222222223)"/><path d="M855.76 263.68a7.7 7.7 0 0 1 9.48 0l80.52 62.64a4.67 4.67 0 0 1 0 7.36l-80.52 62.64a7.7 7.7 0 0 1-9.48 0l-80.52-62.64a4.67 4.67 0 0 1 0-7.36z" stroke="#3a414a" fill="#fff"/><use xlink:href="#L" transform="matrix(1,0,0,1,775.4999611155703,265) translate(36.33216049382716 54.34027777777778)"/><use xlink:href="#M" transform="matrix(1,0,0,1,775.4999611155703,265) translate(113.98648148148148 54.34027777777778)"/><use xlink:href="#N" transform="matrix(1,0,0,1,775.4999611155703,265) translate(30.74574074074074 81.00694444444446)"/><use xlink:href="#O" transform="matrix(1,0,0,1,775.4999611155703,265) translate(71.42475308641976 81.00694444444446)"/><path d="M1485 853.7a6 6 0 0 1 6-6h183a6 6 0 0 1 6 6v53a6 6 0 0 1-6 6h-183a6 6 0 0 1-6-6z" stroke="#3a414a" fill="#fff"/><use xlink:href="#o" transform="matrix(1,0,0,1,1496.9957700419868,859.686117108989) translate(7.222222222222221 25.65277777777778)"/><use xlink:href="#P" transform="matrix(1,0,0,1,1496.9957700419868,859.686117108989) translate(22.22222222222222 25.65277777777778)"/><use xlink:href="#E" transform="matrix(1,0,0,1,1496.9957700419868,859.686117108989) translate(110.98765432098764 25.65277777777778)"/><path d="M1584.5 1022.43l-.1 1.18-.3 1.23-.47 1.16-.66 1.06-.8.96-.97.8-1.07.67-1.16.47-1.22.3-1.17.1h-135.13v-4h134.97l.7-.07.6-.15.6-.24.53-.3.47-.42.4-.48.34-.53.24-.58.14-.62.06-.7v-36.5h4zm0-58h-4v-28.5h4z" stroke="#1071e5" stroke-width=".05" fill="#1071e5"/><path d="M1441.5 1030.36h-1.83l-.44-4h2.27z" fill="#1071e5"/><path d="M1441.53 1030.38h-1.88l-.45-4.05h2.33zm-2.27-4l.44 3.95h1.78v-3.95z" stroke="#1071e5" stroke-width=".05" fill="#1071e5"/><path d="M1587.13 933.92h-9.27l4.64-14.26z" fill="#1071e5"/><path d="M1589.9 935.92h-14.8l7.4-22.73zm-9.3-4h3.78l-1.88-5.8z" stroke="#1071e5" stroke-width=".05" fill="#1071e5"/><g><use xlink:href="#Q" transform="matrix(1,0,0,1,1559.806526996302,964.4344402105145) translate(0 14.222222222222223)"/></g><path d="M1681.06 478.37a8.84 8.84 0 0 1 9.93 0l71.1 48.26a4.07 4.07 0 0 1 0 6.74l-71.1 48.26a8.84 8.84 0 0 1-9.94 0l-71.1-48.26a4.07 4.07 0 0 1 0-6.74z" stroke="#3a414a" fill="#fff"/><g><use xlink:href="#R" transform="matrix(1,0,0,1,1609.9957700419868,480.0000749999999) translate(17.733395061728384 51.78777777777778)"/><use xlink:href="#i" transform="matrix(1,0,0,1,1609.9957700419868,480.0000749999999) translate(76.505 78.45444444444445)"/></g><path d="M1782.5 845.2V721.4a6 6 0 0 0-6-6h-84.47a6 6 0 0 1-6-6V606.4" stroke="#54c45e" stroke-width="4" fill="none"/><path d="M1784.5 847.2h-4v-2.07h4z" stroke="#54c45e" stroke-width=".05" fill="#54c45e"/><path d="M1686.03 590.13l4.63 14.26h-9.27z" stroke="#54c45e" stroke-width="4" fill="#54c45e"/><path d="M1582.5 845.2V721.4a6 6 0 0 1 6-6h91.53a6 6 0 0 0 6-6V606.4" stroke="#54c45e" stroke-width="4" fill="none"/><path d="M1584.5 847.2h-4v-2.07h4z" stroke="#54c45e" stroke-width=".05" fill="#54c45e"/><path d="M1686.03 590.13l4.63 14.26h-9.27z" stroke="#54c45e" stroke-width="4" fill="#54c45e"/><path d="M1465.9 532H960.74v-4h505.16zm139.77 0h-109.15v-4h109.15z" stroke="#1071e5" stroke-width=".05" fill="#1071e5"/><path d="M1608.02 528.26l-.26.85-.1.9.1.9.26.84.13.26h-2.53v-4h2.53z" fill="#1071e5"/><path d="M1608.04 528.27l-.26.85-.08.88.08.88.26.85.16.3h-2.6v-4.05h2.6zm-2.4-.25V532h2.47l-.1-.23-.27-.86-.08-.9.08-.9.26-.85.1-.23z" stroke="#1071e5" stroke-width=".05" fill="#1071e5"/><path d="M958.74 534.63L944.47 530l14.27-4.63z" fill="#1071e5"/><path d="M960.74 537.4L938 530l22.74-7.4zm-9.8-7.4l5.8 1.88v-3.76z" stroke="#1071e5" stroke-width=".05" fill="#1071e5"/><g><use xlink:href="#S" transform="matrix(1,0,0,1,1465.901510221475,519.3333833333332) translate(0 14.222222222222223)"/></g><path d="M1688.03 474.34h-4V186.08h4zm-6.75-356.25l1.22.3 1.16.47 1.07.65.96.82.8.95.66 1.06.48 1.17.3 1.22.1 1.17v38.82h-4v-38.66l-.07-.7-.15-.6-.24-.6-.32-.53-.4-.47-.5-.4-.52-.34-.58-.24-.6-.14-.7-.06h-216.72v-4h216.86z" stroke="#54c45e" stroke-width=".05" fill="#54c45e"/><path d="M1688.03 476.57l-.9-.16-1.1-.06-1.12.07-.88.17v-2.28h4z" fill="#54c45e"/><path d="M1688.05 476.6l-.92-.17-1.1-.06-1.1.06-.93.17v-2.33h4.05zm-4-2.28v2.22l.86-.16 1.13-.06 1.1.06.87.16v-2.22z" stroke="#54c45e" stroke-width=".05" fill="#54c45e"/><path d="M1461.24 124.64l-14.27-4.64 14.27-4.64z" fill="#54c45e"/><path d="M1463.24 127.4l-22.74-7.4 22.74-7.4zm-9.8-7.4l5.8 1.88v-3.76z" stroke="#54c45e" stroke-width=".05" fill="#54c45e"/><g><use xlink:href="#J" transform="matrix(1,0,0,1,1674.2226532853967,164.74250773490408) translate(0 14.222222222222223)"/></g><path d="M1360.4 182.5v552.95" stroke="#54c45e" stroke-width="4" fill="none"/><path d="M1362.4 182.55h-4v-2.05h4z" stroke="#54c45e" stroke-width=".05" fill="#54c45e"/><path d="M1360.4 751.7l-4.62-14.25h9.27z" stroke="#54c45e" stroke-width="4" fill="#54c45e"/><path d="M360 469V196.88" stroke="#3a414a" fill="none"/><path d="M360.5 469.52l-.5-.02-.5.02V469h1z" stroke="#3a414a" stroke-width=".05" fill="#3a414a"/><path d="M360 182.12l4.63 14.26h-9.26z" stroke="#3a414a" fill="#3a414a"/><defs><path fill="#3a414a" d="M143 4C61 4 22-44 18-125c-5-107 100-154 193-111 17 8 29 25 37 43l-32 9c-13-25-37-40-76-40-61 0-88 39-88 99 0 61 29 100 91 101 35 0 62-11 79-27v-45h-74v-28h105v86C228-13 192 4 143 4" id="T"/><path fill="#3a414a" d="M205 0l-28-72H64L36 0H1l101-248h38L239 0h-34zm-38-99l-47-123c-12 45-31 82-46 123h93" id="U"/><path fill="#3a414a" d="M240 0l2-218c-23 76-54 145-80 218h-23L58-218 59 0H30v-248h44l77 211c21-75 51-140 76-211h43V0h-30" id="V"/><path fill="#3a414a" d="M30 0v-248h187v28H63v79h144v27H63v87h162V0H30" id="W"/><g id="a"><use transform="matrix(0.06172839506172839,0,0,0.06172839506172839,0,0)" xlink:href="#T"/><use transform="matrix(0.06172839506172839,0,0,0.06172839506172839,17.28395061728395,0)" xlink:href="#U"/><use transform="matrix(0.06172839506172839,0,0,0.06172839506172839,32.09876543209876,0)" xlink:href="#V"/><use transform="matrix(0.06172839506172839,0,0,0.06172839506172839,50.55555555555554,0)" xlink:href="#W"/></g><path fill="#3a414a" d="M87 75C49 33 22-17 22-94c0-76 28-126 65-167h31c-38 41-64 92-64 168S80 34 118 75H87" id="X"/><path fill="#3a414a" d="M141-36C126-15 110 5 73 4 37 3 15-17 15-53c-1-64 63-63 125-63 3-35-9-54-41-54-24 1-41 7-42 31l-33-3c5-37 33-52 76-52 45 0 72 20 72 64v82c-1 20 7 32 28 27v20c-31 9-61-2-59-35zM48-53c0 20 12 33 32 33 41-3 63-29 60-74-43 2-92-5-92 41" id="Y"/><path fill="#3a414a" d="M24-231v-30h32v30H24zM24 0v-190h32V0H24" id="Z"/><path fill="#3a414a" d="M117-194c89-4 53 116 60 194h-32v-121c0-31-8-49-39-48C34-167 62-67 57 0H25l-1-190h30c1 10-1 24 2 32 11-22 29-35 61-36" id="aa"/><path fill="#3a414a" d="M33-261c38 41 65 92 65 168S71 34 33 75H2C39 34 66-17 66-93S39-220 2-261h31" id="ab"/><g id="b"><use transform="matrix(0.06172839506172839,0,0,0.06172839506172839,0,0)" xlink:href="#X"/><use transform="matrix(0.06172839506172839,0,0,0.06172839506172839,7.345679012345679,0)" xlink:href="#V"/><use transform="matrix(0.06172839506172839,0,0,0.06172839506172839,25.80246913580247,0)" xlink:href="#Y"/><use transform="matrix(0.06172839506172839,0,0,0.06172839506172839,38.148148148148145,0)" xlink:href="#Z"/><use transform="matrix(0.06172839506172839,0,0,0.06172839506172839,43.02469135802469,0)" xlink:href="#aa"/><use transform="matrix(0.06172839506172839,0,0,0.06172839506172839,55.37037037037037,0)" xlink:href="#ab"/></g><path fill="#3a414a" d="M266 0h-40l-56-210L115 0H75L2-248h35L96-30l15-64 43-154h32l59 218 59-218h35" id="ac"/><path fill="#3a414a" d="M30 0v-248h33v221h125V0H30" id="ad"/><path fill="#3a414a" d="M212-179c-10-28-35-45-73-45-59 0-87 40-87 99 0 60 29 101 89 101 43 0 62-24 78-52l27 14C228-24 195 4 139 4 59 4 22-46 18-125c-6-104 99-153 187-111 19 9 31 26 39 46" id="ae"/><path fill="#3a414a" d="M140-251c81 0 123 46 123 126C263-46 219 4 140 4 59 4 17-45 17-125s42-126 123-126zm0 227c63 0 89-41 89-101s-29-99-89-99c-61 0-89 39-89 99S79-25 140-24" id="af"/><g id="c"><use transform="matrix(0.06172839506172839,0,0,0.06172839506172839,0,0)" xlink:href="#ac"/><use transform="matrix(0.06172839506172839,0,0,0.06172839506172839,20.925925925925924,0)" xlink:href="#W"/><use transform="matrix(0.06172839506172839,0,0,0.06172839506172839,35.74074074074073,0)" xlink:href="#ad"/><use transform="matrix(0.06172839506172839,0,0,0.06172839506172839,48.08641975308641,0)" xlink:href="#ae"/><use transform="matrix(0.06172839506172839,0,0,0.06172839506172839,64.07407407407406,0)" xlink:href="#af"/><use transform="matrix(0.06172839506172839,0,0,0.06172839506172839,81.35802469135801,0)" xlink:href="#V"/><use transform="matrix(0.06172839506172839,0,0,0.06172839506172839,99.8148148148148,0)" xlink:href="#W"/></g><path fill="#3a414a" d="M185-189c-5-48-123-54-124 2 14 75 158 14 163 119 3 78-121 87-175 55-17-10-28-26-33-46l33-7c5 56 141 63 141-1 0-78-155-14-162-118-5-82 145-84 179-34 5 7 8 16 11 25" id="ag"/><g id="d"><use transform="matrix(0.06172839506172839,0,0,0.06172839506172839,0,0)" xlink:href="#V"/><use transform="matrix(0.06172839506172839,0,0,0.06172839506172839,18.456790123456788,0)" xlink:href="#W"/><use transform="matrix(0.06172839506172839,0,0,0.06172839506172839,33.2716049382716,0)" xlink:href="#ag"/><use transform="matrix(0.06172839506172839,0,0,0.06172839506172839,48.08641975308642,0)" xlink:href="#ag"/><use transform="matrix(0.06172839506172839,0,0,0.06172839506172839,62.90123456790123,0)" xlink:href="#U"/><use transform="matrix(0.06172839506172839,0,0,0.06172839506172839,77.71604938271604,0)" xlink:href="#T"/><use transform="matrix(0.06172839506172839,0,0,0.06172839506172839,94.99999999999999,0)" xlink:href="#W"/></g><path fill="#3a414a" d="M30-248c87 1 191-15 191 75 0 78-77 80-158 76V0H30v-248zm33 125c57 0 124 11 124-50 0-59-68-47-124-48v98" id="ah"/><path fill="#3a414a" d="M114-163C36-179 61-72 57 0H25l-1-190h30c1 12-1 29 2 39 6-27 23-49 58-41v29" id="ai"/><path fill="#3a414a" d="M100-194c63 0 86 42 84 106H49c0 40 14 67 53 68 26 1 43-12 49-29l28 8c-11 28-37 45-77 45C44 4 14-33 15-96c1-61 26-98 85-98zm52 81c6-60-76-77-97-28-3 7-6 17-6 28h103" id="aj"/><path fill="#3a414a" d="M115-194c55 1 70 41 70 98S169 2 115 4C84 4 66-9 55-30l1 105H24l-1-265h31l2 30c10-21 28-34 59-34zm-8 174c40 0 45-34 45-75s-6-73-45-74c-42 0-51 32-51 76 0 43 10 73 51 73" id="ak"/><path fill="#3a414a" d="M59-47c-2 24 18 29 38 22v24C64 9 27 4 27-40v-127H5v-23h24l9-43h21v43h35v23H59v120" id="al"/><path fill="#3a414a" d="M100-194c62-1 85 37 85 99 1 63-27 99-86 99S16-35 15-95c0-66 28-99 85-99zM99-20c44 1 53-31 53-75 0-43-8-75-51-75s-53 32-53 75 10 74 51 75" id="am"/><g id="e"><use transform="matrix(0.06172839506172839,0,0,0.06172839506172839,0,0)" xlink:href="#ah"/><use transform="matrix(0.06172839506172839,0,0,0.06172839506172839,14.814814814814813,0)" xlink:href="#ai"/><use transform="matrix(0.06172839506172839,0,0,0.06172839506172839,22.160493827160494,0)" xlink:href="#aj"/><use transform="matrix(0.06172839506172839,0,0,0.06172839506172839,34.50617283950617,0)" xlink:href="#ak"/><use transform="matrix(0.06172839506172839,0,0,0.06172839506172839,46.85185185185185,0)" xlink:href="#Y"/><use transform="matrix(0.06172839506172839,0,0,0.06172839506172839,59.197530864197525,0)" xlink:href="#ai"/><use transform="matrix(0.06172839506172839,0,0,0.06172839506172839,66.5432098765432,0)" xlink:href="#Y"/><use transform="matrix(0.06172839506172839,0,0,0.06172839506172839,78.88888888888889,0)" xlink:href="#al"/><use transform="matrix(0.06172839506172839,0,0,0.06172839506172839,85.06172839506172,0)" xlink:href="#Z"/><use transform="matrix(0.06172839506172839,0,0,0.06172839506172839,89.93827160493827,0)" xlink:href="#am"/><use transform="matrix(0.06172839506172839,0,0,0.06172839506172839,102.28395061728395,0)" xlink:href="#aa"/></g><path fill="#3a414a" d="M84 4C-5 8 30-112 23-190h32v120c0 31 7 50 39 49 72-2 45-101 50-169h31l1 190h-30c-1-10 1-25-2-33-11 22-28 36-60 37" id="an"/><path fill="#3a414a" d="M24 0v-261h32V0H24" id="ao"/><g id="f"><use transform="matrix(0.06172839506172839,0,0,0.06172839506172839,0,0)" xlink:href="#V"/><use transform="matrix(0.06172839506172839,0,0,0.06172839506172839,18.456790123456788,0)" xlink:href="#Y"/><use transform="matrix(0.06172839506172839,0,0,0.06172839506172839,30.80246913580247,0)" xlink:href="#aa"/><use transform="matrix(0.06172839506172839,0,0,0.06172839506172839,43.148148148148145,0)" xlink:href="#an"/><use transform="matrix(0.06172839506172839,0,0,0.06172839506172839,55.49382716049382,0)" xlink:href="#Y"/><use transform="matrix(0.06172839506172839,0,0,0.06172839506172839,67.8395061728395,0)" xlink:href="#ao"/></g><path fill="#3a414a" d="M33 0v-248h34V0H33" id="ap"/><g id="g"><use transform="matrix(0.06172839506172839,0,0,0.06172839506172839,0,0)" xlink:href="#ap"/><use transform="matrix(0.06172839506172839,0,0,0.06172839506172839,6.172839506172839,0)" xlink:href="#aa"/><use transform="matrix(0.06172839506172839,0,0,0.06172839506172839,18.51851851851852,0)" xlink:href="#ak"/><use transform="matrix(0.06172839506172839,0,0,0.06172839506172839,30.864197530864196,0)" xlink:href="#an"/><use transform="matrix(0.06172839506172839,0,0,0.06172839506172839,43.20987654320987,0)" xlink:href="#al"/></g><path fill="#3a414a" d="M177-190C167-65 218 103 67 71c-23-6-38-20-44-43l32-5c15 47 100 32 89-28v-30C133-14 115 1 83 1 29 1 15-40 15-95c0-56 16-97 71-98 29-1 48 16 59 35 1-10 0-23 2-32h30zM94-22c36 0 50-32 50-73 0-42-14-75-50-75-39 0-46 34-46 75s6 73 46 73" id="aq"/><path fill="#3a414a" d="M179-190L93 31C79 59 56 82 12 73V49c39 6 53-20 64-50L1-190h34L92-34l54-156h33" id="ar"/><g id="h"><use transform="matrix(0.06172839506172839,0,0,0.06172839506172839,0,0)" xlink:href="#X"/><use transform="matrix(0.06172839506172839,0,0,0.06172839506172839,7.345679012345679,0)" xlink:href="#ae"/><use transform="matrix(0.06172839506172839,0,0,0.06172839506172839,23.333333333333332,0)" xlink:href="#Y"/><use transform="matrix(0.06172839506172839,0,0,0.06172839506172839,35.67901234567901,0)" xlink:href="#al"/><use transform="matrix(0.06172839506172839,0,0,0.06172839506172839,41.851851851851855,0)" xlink:href="#aj"/><use transform="matrix(0.06172839506172839,0,0,0.06172839506172839,54.19753086419753,0)" xlink:href="#aq"/><use transform="matrix(0.06172839506172839,0,0,0.06172839506172839,66.54320987654322,0)" xlink:href="#am"/><use transform="matrix(0.06172839506172839,0,0,0.06172839506172839,78.8888888888889,0)" xlink:href="#ai"/><use transform="matrix(0.06172839506172839,0,0,0.06172839506172839,86.23456790123458,0)" xlink:href="#ar"/><use transform="matrix(0.06172839506172839,0,0,0.06172839506172839,97.3456790123457,0)" xlink:href="#ab"/></g><path fill="#3a414a" d="M30-248c118-7 216 8 213 122C240-48 200 0 122 0H30v-248zM63-27c89 8 146-16 146-99s-60-101-146-95v194" id="as"/><path fill="#3a414a" d="M115-194c53 0 69 39 70 98 0 66-23 100-70 100C84 3 66-7 56-30L54 0H23l1-261h32v101c10-23 28-34 59-34zm-8 174c40 0 45-34 45-75 0-40-5-75-45-74-42 0-51 32-51 76 0 43 10 73 51 73" id="at"/><path fill="#3a414a" d="M135-143c-3-34-86-38-87 0 15 53 115 12 119 90S17 21 10-45l28-5c4 36 97 45 98 0-10-56-113-15-118-90-4-57 82-63 122-42 12 7 21 19 24 35" id="au"/><g id="j"><use transform="matrix(0.06172839506172839,0,0,0.06172839506172839,0,0)" xlink:href="#as"/><use transform="matrix(0.06172839506172839,0,0,0.06172839506172839,15.987654320987653,0)" xlink:href="#Y"/><use transform="matrix(0.06172839506172839,0,0,0.06172839506172839,28.333333333333332,0)" xlink:href="#al"/><use transform="matrix(0.06172839506172839,0,0,0.06172839506172839,34.50617283950617,0)" xlink:href="#Y"/><use transform="matrix(0.06172839506172839,0,0,0.06172839506172839,46.85185185185185,0)" xlink:href="#at"/><use transform="matrix(0.06172839506172839,0,0,0.06172839506172839,59.197530864197525,0)" xlink:href="#Y"/><use transform="matrix(0.06172839506172839,0,0,0.06172839506172839,71.5432098765432,0)" xlink:href="#au"/><use transform="matrix(0.06172839506172839,0,0,0.06172839506172839,82.65432098765432,0)" xlink:href="#aj"/></g><path fill="#3a414a" d="M197 0v-115H63V0H30v-248h33v105h134v-105h34V0h-34" id="av"/><path fill="#3a414a" d="M106-169C34-169 62-67 57 0H25v-261h32l-1 103c12-21 28-36 61-36 89 0 53 116 60 194h-32v-121c2-32-8-49-39-48" id="aw"/><g id="k"><use transform="matrix(0.06172839506172839,0,0,0.06172839506172839,0,0)" xlink:href="#av"/><use transform="matrix(0.06172839506172839,0,0,0.06172839506172839,15.987654320987653,0)" xlink:href="#Z"/><use transform="matrix(0.06172839506172839,0,0,0.06172839506172839,20.864197530864196,0)" xlink:href="#aq"/><use transform="matrix(0.06172839506172839,0,0,0.06172839506172839,33.20987654320987,0)" xlink:href="#aw"/></g><path fill="#3a414a" d="M96-169c-40 0-48 33-48 73s9 75 48 75c24 0 41-14 43-38l32 2c-6 37-31 61-74 61-59 0-76-41-82-99-10-93 101-131 147-64 4 7 5 14 7 22l-32 3c-4-21-16-35-41-35" id="ax"/><path fill="#3a414a" d="M103-251c84 0 111 97 45 133-19 10-37 24-39 52H78c0-63 77-55 77-114 0-30-21-42-52-43-32 0-53 17-56 46l-32-2c7-45 34-72 88-72zM77 0v-35h34V0H77" id="ay"/><g id="l"><use transform="matrix(0.06172839506172839,0,0,0.06172839506172839,0,0)" xlink:href="#au"/><use transform="matrix(0.06172839506172839,0,0,0.06172839506172839,11.11111111111111,0)" xlink:href="#ax"/><use transform="matrix(0.06172839506172839,0,0,0.06172839506172839,22.22222222222222,0)" xlink:href="#am"/><use transform="matrix(0.06172839506172839,0,0,0.06172839506172839,34.5679012345679,0)" xlink:href="#ai"/><use transform="matrix(0.06172839506172839,0,0,0.06172839506172839,41.913580246913575,0)" xlink:href="#aj"/><use transform="matrix(0.06172839506172839,0,0,0.06172839506172839,54.25925925925925,0)" xlink:href="#ay"/></g><path fill="#333" d="M146-102V0H94v-102L6-248h54l60 105 60-105h54" id="az"/><path fill="#333" d="M185-48c-13 30-37 53-82 52C43 2 14-33 14-96s30-98 90-98c62 0 83 45 84 108H66c0 31 8 55 39 56 18 0 30-7 34-22zm-45-69c5-46-57-63-70-21-2 6-4 13-4 21h74" id="aA"/><path fill="#333" d="M137-138c1-29-70-34-71-4 15 46 118 7 119 86 1 83-164 76-172 9l43-7c4 19 20 25 44 25 33 8 57-30 24-41C81-84 22-81 20-136c-2-80 154-74 161-7" id="aB"/><g id="m"><use transform="matrix(0.04938271604938272,0,0,0.04938271604938272,0,0)" xlink:href="#az"/><use transform="matrix(0.04938271604938272,0,0,0.04938271604938272,10.864197530864198,0)" xlink:href="#aA"/><use transform="matrix(0.04938271604938272,0,0,0.04938271604938272,20.74074074074074,0)" xlink:href="#aB"/></g><path fill="#3a414a" d="M190 0L58-211 59 0H30v-248h39L202-35l-2-213h31V0h-41" id="aC"/><path fill="#3a414a" d="M210-169c-67 3-38 105-44 169h-31v-121c0-29-5-50-35-48C34-165 62-65 56 0H25l-1-190h30c1 10-1 24 2 32 10-44 99-50 107 0 11-21 27-35 58-36 85-2 47 119 55 194h-31v-121c0-29-5-49-35-48" id="aD"/><g id="n"><use transform="matrix(0.06172839506172839,0,0,0.06172839506172839,0,0)" xlink:href="#X"/><use transform="matrix(0.06172839506172839,0,0,0.06172839506172839,7.345679012345679,0)" xlink:href="#aC"/><use transform="matrix(0.06172839506172839,0,0,0.06172839506172839,23.333333333333332,0)" xlink:href="#Y"/><use transform="matrix(0.06172839506172839,0,0,0.06172839506172839,35.67901234567901,0)" xlink:href="#aD"/><use transform="matrix(0.06172839506172839,0,0,0.06172839506172839,54.1358024691358,0)" xlink:href="#aj"/><use transform="matrix(0.06172839506172839,0,0,0.06172839506172839,66.48148148148148,0)" xlink:href="#ab"/></g><path fill="#3a414a" d="M62-168c30 0 50 19 50 48S92-70 62-70c-29 0-48-21-48-50s20-48 48-48" id="aE"/><use transform="matrix(0.06172839506172839,0,0,0.06172839506172839,0,0)" xlink:href="#aE" id="o"/><g id="p"><use transform="matrix(0.06172839506172839,0,0,0.06172839506172839,0,0)" xlink:href="#as"/><use transform="matrix(0.06172839506172839,0,0,0.06172839506172839,15.987654320987653,0)" xlink:href="#Z"/><use transform="matrix(0.06172839506172839,0,0,0.06172839506172839,20.864197530864196,0)" xlink:href="#au"/><use transform="matrix(0.06172839506172839,0,0,0.06172839506172839,31.975308641975307,0)" xlink:href="#ak"/><use transform="matrix(0.06172839506172839,0,0,0.06172839506172839,44.32098765432099,0)" xlink:href="#ao"/><use transform="matrix(0.06172839506172839,0,0,0.06172839506172839,49.19753086419753,0)" xlink:href="#Y"/><use transform="matrix(0.06172839506172839,0,0,0.06172839506172839,61.54320987654321,0)" xlink:href="#ar"/></g><path fill="#3a414a" d="M16-82v-28h88v28H16" id="aF"/><use transform="matrix(0.06172839506172839,0,0,0.06172839506172839,0,0)" xlink:href="#aF" id="r"/><path fill="#3a414a" d="M85-194c31 0 48 13 60 33l-1-100h32l1 261h-30c-2-10 0-23-3-31C134-8 116 4 85 4 32 4 16-35 15-94c0-66 23-100 70-100zm9 24c-40 0-46 34-46 75 0 40 6 74 45 74 42 0 51-32 51-76 0-42-9-74-50-73" id="aG"/><g id="s"><use transform="matrix(0.06172839506172839,0,0,0.06172839506172839,0,0)" xlink:href="#ac"/><use transform="matrix(0.06172839506172839,0,0,0.06172839506172839,20.493827160493826,0)" xlink:href="#am"/><use transform="matrix(0.06172839506172839,0,0,0.06172839506172839,32.839506172839506,0)" xlink:href="#ai"/><use transform="matrix(0.06172839506172839,0,0,0.06172839506172839,40.18518518518518,0)" xlink:href="#aG"/></g><g id="t"><use transform="matrix(0.06172839506172839,0,0,0.06172839506172839,0,0)" xlink:href="#ag"/><use transform="matrix(0.06172839506172839,0,0,0.06172839506172839,14.814814814814813,0)" xlink:href="#ax"/><use transform="matrix(0.06172839506172839,0,0,0.06172839506172839,25.925925925925924,0)" xlink:href="#am"/><use transform="matrix(0.06172839506172839,0,0,0.06172839506172839,38.2716049382716,0)" xlink:href="#ai"/><use transform="matrix(0.06172839506172839,0,0,0.06172839506172839,45.61728395061728,0)" xlink:href="#aj"/></g><g id="u"><use transform="matrix(0.06172839506172839,0,0,0.06172839506172839,0,0)" xlink:href="#ae"/><use transform="matrix(0.06172839506172839,0,0,0.06172839506172839,15.987654320987653,0)" xlink:href="#am"/><use transform="matrix(0.06172839506172839,0,0,0.06172839506172839,28.333333333333332,0)" xlink:href="#an"/><use transform="matrix(0.06172839506172839,0,0,0.06172839506172839,40.67901234567901,0)" xlink:href="#aa"/><use transform="matrix(0.06172839506172839,0,0,0.06172839506172839,53.02469135802469,0)" xlink:href="#al"/><use transform="matrix(0.06172839506172839,0,0,0.06172839506172839,59.19753086419753,0)" xlink:href="#aj"/><use transform="matrix(0.06172839506172839,0,0,0.06172839506172839,71.54320987654322,0)" xlink:href="#ai"/></g><path fill="#333" d="M240-174c0 40-23 61-54 70L253 0h-59l-57-94H76V0H24v-248c93 4 217-23 216 74zM76-134c48-2 112 12 112-38 0-48-66-32-112-35v73" id="aH"/><path fill="#333" d="M115-3C79 11 28 4 28-45v-112H4v-33h27l15-45h31v45h36v33H77v99c-1 23 16 31 38 25v30" id="aI"/><path fill="#333" d="M133-34C117-15 103 5 69 4 32 3 11-16 11-54c-1-60 55-63 116-61 1-26-3-47-28-47-18 1-26 9-28 27l-52-2c7-38 36-58 82-57s74 22 75 68l1 82c-1 14 12 18 25 15v27c-30 8-71 5-69-32zm-48 3c29 0 43-24 42-57-32 0-66-3-65 30 0 17 8 27 23 27" id="aJ"/><path fill="#333" d="M135-150c-39-12-60 13-60 57V0H25l-1-190h47c2 13-1 29 3 40 6-28 27-53 61-41v41" id="aK"/><g id="v"><use transform="matrix(0.04938271604938272,0,0,0.04938271604938272,0,0)" xlink:href="#aH"/><use transform="matrix(0.04938271604938272,0,0,0.04938271604938272,12.790123456790125,0)" xlink:href="#aA"/><use transform="matrix(0.04938271604938272,0,0,0.04938271604938272,22.66666666666667,0)" xlink:href="#aB"/><use transform="matrix(0.04938271604938272,0,0,0.04938271604938272,32.543209876543216,0)" xlink:href="#aI"/><use transform="matrix(0.04938271604938272,0,0,0.04938271604938272,38.41975308641976,0)" xlink:href="#aJ"/><use transform="matrix(0.04938271604938272,0,0,0.04938271604938272,48.296296296296305,0)" xlink:href="#aK"/><use transform="matrix(0.04938271604938272,0,0,0.04938271604938272,55.209876543209894,0)" xlink:href="#aI"/></g><path d="M212-179c-10-28-35-45-73-45-59 0-87 40-87 99 0 60 29 101 89 101 43 0 62-24 78-52l27 14C228-24 195 4 139 4 59 4 22-46 18-125c-6-104 99-153 187-111 19 9 31 26 39 46" id="aL"/><path d="M106-169C34-169 62-67 57 0H25v-261h32l-1 103c12-21 28-36 61-36 89 0 53 116 60 194h-32v-121c2-32-8-49-39-48" id="aM"/><path d="M100-194c62-1 85 37 85 99 1 63-27 99-86 99S16-35 15-95c0-66 28-99 85-99zM99-20c44 1 53-31 53-75 0-43-8-75-51-75s-53 32-53 75 10 74 51 75" id="aN"/><path d="M24-231v-30h32v30H24zM24 0v-190h32V0H24" id="aO"/><path d="M96-169c-40 0-48 33-48 73s9 75 48 75c24 0 41-14 43-38l32 2c-6 37-31 61-74 61-59 0-76-41-82-99-10-93 101-131 147-64 4 7 5 14 7 22l-32 3c-4-21-16-35-41-35" id="aP"/><path d="M100-194c63 0 86 42 84 106H49c0 40 14 67 53 68 26 1 43-12 49-29l28 8c-11 28-37 45-77 45C44 4 14-33 15-96c1-61 26-98 85-98zm52 81c6-60-76-77-97-28-3 7-6 17-6 28h103" id="aQ"/><path d="M135-143c-3-34-86-38-87 0 15 53 115 12 119 90S17 21 10-45l28-5c4 36 97 45 98 0-10-56-113-15-118-90-4-57 82-63 122-42 12 7 21 19 24 35" id="aR"/><g id="w"><use transform="matrix(0.05925925925925927,0,0,0.05925925925925927,0,0)" xlink:href="#aL"/><use transform="matrix(0.05925925925925927,0,0,0.05925925925925927,15.34814814814815,0)" xlink:href="#aM"/><use transform="matrix(0.05925925925925927,0,0,0.05925925925925927,27.200000000000003,0)" xlink:href="#aN"/><use transform="matrix(0.05925925925925927,0,0,0.05925925925925927,39.05185185185186,0)" xlink:href="#aO"/><use transform="matrix(0.05925925925925927,0,0,0.05925925925925927,43.73333333333334,0)" xlink:href="#aP"/><use transform="matrix(0.05925925925925927,0,0,0.05925925925925927,54.400000000000006,0)" xlink:href="#aQ"/><use transform="matrix(0.05925925925925927,0,0,0.05925925925925927,66.25185185185185,0)" xlink:href="#aR"/></g><path fill="#333" d="M23 0v-37h61v-169l-59 37v-38l62-41h46v211h57V0H23" id="aS"/><use transform="matrix(0.04938271604938272,0,0,0.04938271604938272,0,0)" xlink:href="#aS" id="x"/><path fill="#333" d="M182-182c0 78-84 86-111 141h115V0H12c-6-101 99-100 120-180 1-22-12-31-33-32-23 0-32 14-35 34l-49-3c5-45 32-70 84-70 51 0 83 22 83 69" id="aT"/><use transform="matrix(0.04938271604938272,0,0,0.04938271604938272,0,0)" xlink:href="#aT" id="y"/><path fill="#333" d="M128-127c34 4 56 21 59 58 7 91-148 94-172 28-4-9-6-17-7-26l51-5c1 24 16 35 40 36 23 0 39-12 38-36-1-31-31-36-65-34v-40c32 2 59-3 59-33 0-20-13-33-34-33s-33 13-35 32l-50-3c6-44 37-68 86-68 50 0 83 20 83 66 0 35-22 52-53 58" id="aU"/><use transform="matrix(0.04938271604938272,0,0,0.04938271604938272,0,0)" xlink:href="#aU" id="z"/><path fill="#3a414a" d="M143 0L79-87 56-68V0H24v-261h32v163l83-92h37l-77 82L181 0h-38" id="aV"/><g id="A"><use transform="matrix(0.06172839506172839,0,0,0.06172839506172839,0,0)" xlink:href="#ax"/><use transform="matrix(0.06172839506172839,0,0,0.06172839506172839,11.11111111111111,0)" xlink:href="#aw"/><use transform="matrix(0.06172839506172839,0,0,0.06172839506172839,23.45679012345679,0)" xlink:href="#aj"/><use transform="matrix(0.06172839506172839,0,0,0.06172839506172839,35.80246913580247,0)" xlink:href="#ax"/><use transform="matrix(0.06172839506172839,0,0,0.06172839506172839,46.91358024691358,0)" xlink:href="#aV"/></g><path fill="#3a414a" d="M206 0h-36l-40-164L89 0H53L-1-190h32L70-26l43-164h34l41 164 42-164h31" id="aW"/><g id="B"><use transform="matrix(0.06172839506172839,0,0,0.06172839506172839,0,0)" xlink:href="#Y"/><use transform="matrix(0.06172839506172839,0,0,0.06172839506172839,12.345679012345679,0)" xlink:href="#aa"/><use transform="matrix(0.06172839506172839,0,0,0.06172839506172839,24.691358024691358,0)" xlink:href="#au"/><use transform="matrix(0.06172839506172839,0,0,0.06172839506172839,35.80246913580247,0)" xlink:href="#aW"/><use transform="matrix(0.06172839506172839,0,0,0.06172839506172839,51.79012345679012,0)" xlink:href="#aj"/><use transform="matrix(0.06172839506172839,0,0,0.06172839506172839,64.1358024691358,0)" xlink:href="#ai"/></g><path fill="#333" d="M136-208V0H84v-208H4v-40h212v40h-80" id="aX"/><path fill="#333" d="M85 4C-2 5 27-109 22-190h50c7 57-23 150 33 157 60-5 35-97 40-157h50l1 190h-47c-2-12 1-28-3-38-12 25-28 42-61 42" id="aY"/><g id="C"><use transform="matrix(0.04938271604938272,0,0,0.04938271604938272,0,0)" xlink:href="#aX"/><use transform="matrix(0.04938271604938272,0,0,0.04938271604938272,9.82716049382716,0)" xlink:href="#aK"/><use transform="matrix(0.04938271604938272,0,0,0.04938271604938272,16.74074074074074,0)" xlink:href="#aY"/><use transform="matrix(0.04938271604938272,0,0,0.04938271604938272,27.555555555555557,0)" xlink:href="#aA"/></g><g id="D"><use transform="matrix(0.06172839506172839,0,0,0.06172839506172839,0,0)" xlink:href="#U"/><use transform="matrix(0.06172839506172839,0,0,0.06172839506172839,14.814814814814813,0)" xlink:href="#aG"/><use transform="matrix(0.06172839506172839,0,0,0.06172839506172839,27.160493827160494,0)" xlink:href="#aG"/></g><g id="E"><use transform="matrix(0.06172839506172839,0,0,0.06172839506172839,0,0)" xlink:href="#au"/><use transform="matrix(0.06172839506172839,0,0,0.06172839506172839,11.11111111111111,0)" xlink:href="#ax"/><use transform="matrix(0.06172839506172839,0,0,0.06172839506172839,22.22222222222222,0)" xlink:href="#am"/><use transform="matrix(0.06172839506172839,0,0,0.06172839506172839,34.5679012345679,0)" xlink:href="#ai"/><use transform="matrix(0.06172839506172839,0,0,0.06172839506172839,41.913580246913575,0)" xlink:href="#aj"/></g><path fill="#333" d="M67-125c0 53 21 87 73 88 37 1 54-22 65-47l45 17C233-25 199 4 140 4 58 4 20-42 15-125 8-235 124-281 211-232c18 10 29 29 36 50l-46 12c-8-25-30-41-62-41-52 0-71 34-72 86" id="aZ"/><path fill="#333" d="M195-6C206 82 75 100 31 46c-4-6-6-13-8-21l49-6c3 16 16 24 34 25 40 0 42-37 40-79-11 22-30 35-61 35-53 0-70-43-70-97 0-56 18-96 73-97 30 0 46 14 59 34l2-30h47zm-90-29c32 0 41-27 41-63 0-35-9-62-40-62-32 0-39 29-40 63 0 36 9 62 39 62" id="ba"/><path fill="#333" d="M110-194c64 0 96 36 96 99 0 64-35 99-97 99-61 0-95-36-95-99 0-62 34-99 96-99zm-1 164c35 0 45-28 45-65 0-40-10-65-43-65-34 0-45 26-45 65 0 36 10 65 43 65" id="bb"/><path fill="#333" d="M123 10C108 53 80 86 19 72V37c35 8 53-11 59-39L3-190h52l48 148c12-52 28-100 44-148h51" id="bc"/><g id="F"><use transform="matrix(0.04938271604938272,0,0,0.04938271604938272,0,0)" xlink:href="#aZ"/><use transform="matrix(0.04938271604938272,0,0,0.04938271604938272,12.790123456790125,0)" xlink:href="#aJ"/><use transform="matrix(0.04938271604938272,0,0,0.04938271604938272,22.66666666666667,0)" xlink:href="#aI"/><use transform="matrix(0.04938271604938272,0,0,0.04938271604938272,28.54320987654322,0)" xlink:href="#aA"/><use transform="matrix(0.04938271604938272,0,0,0.04938271604938272,38.41975308641976,0)" xlink:href="#ba"/><use transform="matrix(0.04938271604938272,0,0,0.04938271604938272,49.23456790123458,0)" xlink:href="#bb"/><use transform="matrix(0.04938271604938272,0,0,0.04938271604938272,60.0493827160494,0)" xlink:href="#aK"/><use transform="matrix(0.04938271604938272,0,0,0.04938271604938272,66.96296296296298,0)" xlink:href="#bc"/></g><use transform="matrix(0.04938271604938272,0,0,0.04938271604938272,0,0)" xlink:href="#aT" id="G"/><path fill="#333" d="M114-157C55-157 80-60 75 0H25v-261h50l-1 109c12-26 28-41 61-42 86-1 58 113 63 194h-50c-7-57 23-157-34-157" id="bd"/><path fill="#333" d="M220-157c-53 9-28 100-34 157h-49v-107c1-27-5-49-29-50C55-147 81-57 75 0H25l-1-190h47c2 12-1 28 3 38 10-53 101-56 108 0 13-22 24-43 59-42 82 1 51 116 57 194h-49v-107c-1-25-5-48-29-50" id="be"/><path fill="#333" d="M25-224v-37h50v37H25zM25 0v-190h50V0H25" id="bf"/><path fill="#333" d="M190-63c-7 42-38 67-86 67-59 0-84-38-90-98-12-110 154-137 174-36l-49 2c-2-19-15-32-35-32-30 0-35 28-38 64-6 74 65 87 74 30" id="bg"/><path fill="#333" d="M25 0v-261h50V0H25" id="bh"/><g id="H"><use transform="matrix(0.04938271604938272,0,0,0.04938271604938272,0,0)" xlink:href="#aZ"/><use transform="matrix(0.04938271604938272,0,0,0.04938271604938272,12.790123456790125,0)" xlink:href="#bd"/><use transform="matrix(0.04938271604938272,0,0,0.04938271604938272,23.60493827160494,0)" xlink:href="#aA"/><use transform="matrix(0.04938271604938272,0,0,0.04938271604938272,33.48148148148148,0)" xlink:href="#be"/><use transform="matrix(0.04938271604938272,0,0,0.04938271604938272,49.28395061728395,0)" xlink:href="#bf"/><use transform="matrix(0.04938271604938272,0,0,0.04938271604938272,54.22222222222223,0)" xlink:href="#bg"/><use transform="matrix(0.04938271604938272,0,0,0.04938271604938272,64.09876543209876,0)" xlink:href="#aJ"/><use transform="matrix(0.04938271604938272,0,0,0.04938271604938272,73.9753086419753,0)" xlink:href="#bh"/></g><path fill="#333" d="M24 0v-248h195v40H76v63h132v40H76v65h150V0H24" id="bi"/><path fill="#333" d="M135-194c87-1 58 113 63 194h-50c-7-57 23-157-34-157-59 0-34 97-39 157H25l-1-190h47c2 12-1 28 3 38 12-26 28-41 61-42" id="bj"/><g id="I"><use transform="matrix(0.04938271604938272,0,0,0.04938271604938272,0,0)" xlink:href="#bi"/><use transform="matrix(0.04938271604938272,0,0,0.04938271604938272,11.851851851851853,0)" xlink:href="#bh"/><use transform="matrix(0.04938271604938272,0,0,0.04938271604938272,16.790123456790127,0)" xlink:href="#aA"/><use transform="matrix(0.04938271604938272,0,0,0.04938271604938272,26.666666666666668,0)" xlink:href="#be"/><use transform="matrix(0.04938271604938272,0,0,0.04938271604938272,42.46913580246914,0)" xlink:href="#aA"/><use transform="matrix(0.04938271604938272,0,0,0.04938271604938272,52.345679012345684,0)" xlink:href="#bj"/><use transform="matrix(0.04938271604938272,0,0,0.04938271604938272,63.1604938271605,0)" xlink:href="#aI"/><use transform="matrix(0.04938271604938272,0,0,0.04938271604938272,69.03703703703704,0)" xlink:href="#aB"/></g><path fill="#333" d="M175 0L67-191c6 58 2 128 3 191H24v-248h59L193-55c-6-58-2-129-3-193h46V0h-61" id="bk"/><g id="J"><use transform="matrix(0.04938271604938272,0,0,0.04938271604938272,0,0)" xlink:href="#bk"/><use transform="matrix(0.04938271604938272,0,0,0.04938271604938272,12.790123456790125,0)" xlink:href="#bb"/></g><path fill="#333" d="M144 0l-44-69L55 0H2l70-98-66-92h53l41 62 40-62h54l-67 91 71 99h-54" id="bl"/><g id="K"><use transform="matrix(0.04938271604938272,0,0,0.04938271604938272,0,0)" xlink:href="#bi"/><use transform="matrix(0.04938271604938272,0,0,0.04938271604938272,11.851851851851853,0)" xlink:href="#bl"/><use transform="matrix(0.04938271604938272,0,0,0.04938271604938272,21.7283950617284,0)" xlink:href="#bf"/><use transform="matrix(0.04938271604938272,0,0,0.04938271604938272,26.666666666666668,0)" xlink:href="#aI"/></g><path fill="#3a414a" d="M233-177c-1 41-23 64-60 70L243 0h-38l-65-103H63V0H30v-248c88 3 205-21 203 71zM63-129c60-2 137 13 137-47 0-61-80-42-137-45v92" id="bm"/><g id="L"><use transform="matrix(0.06172839506172839,0,0,0.06172839506172839,0,0)" xlink:href="#bm"/><use transform="matrix(0.06172839506172839,0,0,0.06172839506172839,15.987654320987653,0)" xlink:href="#aj"/><use transform="matrix(0.06172839506172839,0,0,0.06172839506172839,28.333333333333332,0)" xlink:href="#au"/><use transform="matrix(0.06172839506172839,0,0,0.06172839506172839,39.44444444444444,0)" xlink:href="#al"/><use transform="matrix(0.06172839506172839,0,0,0.06172839506172839,45.617283950617285,0)" xlink:href="#Y"/><use transform="matrix(0.06172839506172839,0,0,0.06172839506172839,57.96296296296296,0)" xlink:href="#ai"/><use transform="matrix(0.06172839506172839,0,0,0.06172839506172839,65.30864197530865,0)" xlink:href="#al"/></g><g id="M"><use transform="matrix(0.06172839506172839,0,0,0.06172839506172839,0,0)" xlink:href="#am"/><use transform="matrix(0.06172839506172839,0,0,0.06172839506172839,12.345679012345679,0)" xlink:href="#ai"/></g><path fill="#3a414a" d="M141 0L90-78 38 0H4l68-98-65-92h35l48 74 47-74h35l-64 92 68 98h-35" id="bn"/><g id="N"><use transform="matrix(0.06172839506172839,0,0,0.06172839506172839,0,0)" xlink:href="#aj"/><use transform="matrix(0.06172839506172839,0,0,0.06172839506172839,12.345679012345679,0)" xlink:href="#bn"/><use transform="matrix(0.06172839506172839,0,0,0.06172839506172839,23.45679012345679,0)" xlink:href="#Z"/><use transform="matrix(0.06172839506172839,0,0,0.06172839506172839,28.333333333333336,0)" xlink:href="#al"/></g><g id="O"><use transform="matrix(0.06172839506172839,0,0,0.06172839506172839,0,0)" xlink:href="#aq"/><use transform="matrix(0.06172839506172839,0,0,0.06172839506172839,12.345679012345679,0)" xlink:href="#Y"/><use transform="matrix(0.06172839506172839,0,0,0.06172839506172839,24.691358024691358,0)" xlink:href="#aD"/><use transform="matrix(0.06172839506172839,0,0,0.06172839506172839,43.148148148148145,0)" xlink:href="#aj"/><use transform="matrix(0.06172839506172839,0,0,0.06172839506172839,55.49382716049382,0)" xlink:href="#ay"/></g><g id="P"><use transform="matrix(0.06172839506172839,0,0,0.06172839506172839,0,0)" xlink:href="#as"/><use transform="matrix(0.06172839506172839,0,0,0.06172839506172839,15.987654320987653,0)" xlink:href="#aj"/><use transform="matrix(0.06172839506172839,0,0,0.06172839506172839,28.333333333333332,0)" xlink:href="#ax"/><use transform="matrix(0.06172839506172839,0,0,0.06172839506172839,39.44444444444444,0)" xlink:href="#ai"/><use transform="matrix(0.06172839506172839,0,0,0.06172839506172839,46.79012345679012,0)" xlink:href="#aj"/><use transform="matrix(0.06172839506172839,0,0,0.06172839506172839,59.1358024691358,0)" xlink:href="#au"/><use transform="matrix(0.06172839506172839,0,0,0.06172839506172839,70.24691358024691,0)" xlink:href="#aj"/></g><path fill="#333" d="M76-208v77h127v40H76V0H24v-248h183v40H76" id="bo"/><g id="Q"><use transform="matrix(0.04938271604938272,0,0,0.04938271604938272,0,0)" xlink:href="#bo"/><use transform="matrix(0.04938271604938272,0,0,0.04938271604938272,10.814814814814815,0)" xlink:href="#aJ"/><use transform="matrix(0.04938271604938272,0,0,0.04938271604938272,20.69135802469136,0)" xlink:href="#bh"/><use transform="matrix(0.04938271604938272,0,0,0.04938271604938272,25.629629629629633,0)" xlink:href="#aB"/><use transform="matrix(0.04938271604938272,0,0,0.04938271604938272,35.50617283950618,0)" xlink:href="#aA"/></g><path fill="#3a414a" d="M18-150v-26h174v26H18zm0 90v-26h174v26H18" id="bp"/><path fill="#3a414a" d="M101-251c68 0 85 55 85 127S166 4 100 4C33 4 14-52 14-124c0-73 17-127 87-127zm-1 229c47 0 54-49 54-102s-4-102-53-102c-51 0-55 48-55 102 0 53 5 102 54 102" id="bq"/><g id="R"><use transform="matrix(0.06172839506172839,0,0,0.06172839506172839,0,0)" xlink:href="#ae"/><use transform="matrix(0.06172839506172839,0,0,0.06172839506172839,15.987654320987653,0)" xlink:href="#am"/><use transform="matrix(0.06172839506172839,0,0,0.06172839506172839,28.333333333333332,0)" xlink:href="#an"/><use transform="matrix(0.06172839506172839,0,0,0.06172839506172839,40.67901234567901,0)" xlink:href="#aa"/><use transform="matrix(0.06172839506172839,0,0,0.06172839506172839,53.02469135802469,0)" xlink:href="#al"/><use transform="matrix(0.06172839506172839,0,0,0.06172839506172839,59.19753086419753,0)" xlink:href="#aj"/><use transform="matrix(0.06172839506172839,0,0,0.06172839506172839,71.54320987654322,0)" xlink:href="#ai"/><use transform="matrix(0.06172839506172839,0,0,0.06172839506172839,78.8888888888889,0)" xlink:href="#bp"/><use transform="matrix(0.06172839506172839,0,0,0.06172839506172839,91.85185185185186,0)" xlink:href="#bq"/><use transform="matrix(0.06172839506172839,0,0,0.06172839506172839,104.19753086419755,0)" xlink:href="#ay"/></g><g id="S"><use transform="matrix(0.04938271604938272,0,0,0.04938271604938272,0,0)" xlink:href="#az"/><use transform="matrix(0.04938271604938272,0,0,0.04938271604938272,10.864197530864198,0)" xlink:href="#aA"/><use transform="matrix(0.04938271604938272,0,0,0.04938271604938272,20.74074074074074,0)" xlink:href="#aB"/></g></defs></g></svg>